<?xml version="1.0" encoding="UTF-8" standalone="no"?><svg xmlns="http://www.w3.org/2000/svg" xmlns:xlink="http://www.w3.org/1999/xlink" contentScriptType="text/ecmascript" fill="#c1ff72" width="299.6" zoomAndPan="magnify" contentStyleType="text/css" viewBox="-0.1 -0.1 299.6 299.6" height="299.6" preserveAspectRatio="xMidYMid meet" version="1"><g id="change1_1"><path d="M280.99,131.31c-26.26,0-86.89,8.88-121.43,14.29c28.1-20.48,76.84-56.77,95.65-75.44c7.2-7.15,7.56-18.92,0.47-26.17 c-7.17-7.33-18.92-7.37-26.14-0.15c-18.57,18.57-55.16,67.72-75.76,95.97c5.39-34.35,14.19-94.48,14.29-120.98 C168.11,8.69,160.04,0.11,149.9,0c-10.25-0.11-18.59,8.16-18.59,18.38c0,26.26,8.88,86.89,14.29,121.43 c-20.6-28.26-57.19-77.4-75.76-95.97c-7.23-7.23-18.98-7.18-26.14,0.15c-7.1,7.25-6.74,19.02,0.47,26.17 c18.81,18.67,67.56,54.96,95.65,75.44c-34.35-5.39-94.48-14.19-120.98-14.29C8.69,131.27,0.11,139.33,0,149.48 c-0.11,10.25,8.16,18.59,18.38,18.59c26.26,0,86.89-8.88,121.43-14.29c-28.1,20.48-76.84,56.77-95.65,75.44 c-7.2,7.15-7.56,18.92-0.47,26.17c7.17,7.33,18.92,7.37,26.14,0.15c18.57-18.57,55.16-67.72,75.76-95.97 c-5.39,34.35-14.19,94.48-14.29,120.98c-0.04,10.15,8.03,18.72,18.18,18.83c10.25,0.11,18.59-8.16,18.59-18.38 c0-26.26-8.88-86.89-14.29-121.43c20.6,28.26,57.19,77.4,75.76,95.97c7.23,7.23,18.98,7.18,26.14-0.15 c7.1-7.25,6.74-19.02-0.47-26.17c-18.81-18.67-67.56-54.96-95.65-75.44c34.35,5.39,94.48,14.19,120.98,14.29 c10.15,0.04,18.72-8.03,18.83-18.18C299.49,139.65,291.22,131.31,280.99,131.31z M149.69,149.69 C149.69,149.69,149.69,149.69,149.69,149.69L149.69,149.69L149.69,149.69C149.69,149.69,149.69,149.69,149.69,149.69L149.69,149.69 C149.69,149.69,149.69,149.69,149.69,149.69L149.69,149.69z"/></g></svg>